# Simple cube with vertex textures and normals

# Vertices
v -1.0 -1.0  1.0
v  1.0 -1.0  1.0
v  1.0  1.0  1.0
v -1.0  1.0  1.0
v -1.0 -1.0 -1.0
v  1.0 -1.0 -1.0
v  1.0  1.0 -1.0
v -1.0  1.0 -1.0

# Vertex textures
vt 0.0 0.0
vt 1.0 0.0
vt 1.0 1.0
vt 0.0 1.0

# Vertex normals
vn  0.0  0.0  1.0
vn  0.0  0.0 -1.0
vn  0.0 -1.0  0.0
vn  0.0  1.0  0.0
vn -1.0  0.0  0.0
vn  1.0  0.0  0.0

# Faces with vertex/texture/normal using triangles
f 1/1/1 2/2/1 3/3/1
f 1/1/1 3/3/1 4/4/1
f 5/1/2 8/4/2 7/3/2
f 5/1/2 7/3/2 6/2/2
f 1/1/3 5/2/3 6/3/3
f 1/1/3 6/3/3 2/4/3
f 2/2/6 6/3/6 7/4/6
f 2/2/6 7/4/6 3/1/6
f 3/3/4 7/4/4 8/1/4
f 3/3/4 8/1/4 4/2/4
f 5/2/5 1/3/5 4/4/5
f 5/2/5 4/4/5 8/1/5
